<?xml version="1.0" standalone="no"?>
<!DOCTYPE svg PUBLIC "-//W3C//DTD SVG 20010904//EN"
 "http://www.w3.org/TR/2001/REC-SVG-20010904/DTD/svg10.dtd">
<svg version="1.0" xmlns="http://www.w3.org/2000/svg"
 width="512.000000pt" height="512.000000pt" viewBox="0 0 512.000000 512.000000"
 preserveAspectRatio="xMidYMid meet">
<metadata>
Created by potrace 1.14, written by Peter Selinger 2001-2017
</metadata>
<g transform="translate(0.000000,512.000000) scale(0.100000,-0.100000)"
fill="#000000" stroke="none">
<path d="M617 5098 c-23 -14 -45 -38 -57 -63 -20 -41 -20 -65 -20 -2479 l0
-2438 22 -39 c14 -25 37 -46 63 -59 41 -20 62 -20 1942 -20 2095 0 1947 -5
1995 62 l23 33 3 2045 c1 1125 0 2061 -3 2080 -6 30 -71 99 -433 461 -354 354
-433 428 -461 433 -19 3 -710 6 -1535 6 l-1501 -1 -38 -21z"/>
</g>
</svg>
